<svg xmlns="http://www.w3.org/2000/svg" viewBox="0 0 222.37 227.39"><defs><style>.cls-1{fill:#fefefe;}.cls-2{fill:#FF1418;}.cls-3{fill:#f9f9f9;}.cls-4{fill:#eaeaea;}.cls-5{fill:#797979;}.cls-6{fill:#cfcfcf;}.cls-7{fill:#dbdbdb;}.cls-8{fill:#cdcdcd;}</style></defs><title>Asset 4</title><g id="Layer_2" data-name="Layer 2" fill="#FF1418"><g id="Layer_1-2" data-name="Layer 1"><path d="M1,55V53c5-2.33,1.15-4.67,0-7V44c1.85-3.94,5.79-5.79,11.18-4.59,3.38.75,6.3.9,9.61-.61,4.11-1.88,7.7-.21,9.79,3.94,1.21,2.4,2.62,3.64,5.49,2.87,3.67-1,7.25.34,10.78,1.08,2.71.57,3.17-.21,3-2.66a79.27,79.27,0,0,0-2.15-15.79c-.49-1.83-.93-3.63.69-5.1s3.38-.71,5.17-.19c3,.86,5.55,2,6.58,5.38.7,2.28,2.8,3.15,5,3.77s4.21,1,6.28,1.6c5.33,1.66,6.42,1.07,8.15-4.43A6.19,6.19,0,0,1,85,25a43.83,43.83,0,0,1,7.34-1.41c7.07-1,9.45-3.87,10.44-10.76.57-4-.57-8.94,4.46-11.27,2.59-.32,5.27.6,7.8-.53h4c2.71,2.66,4.26,6.77,9.21,6.56,1.6-.07,1.94,2.07,2.45,3.45,1.46,3.9,3.65,7.1,7.76,8.61,2.22.81,3.19,2.65,4.13,4.71,1.72,3.74,3.38,4.12,6.21,1.08,2.21-2.36,3.39-1.09,3.82.84,2.32,10.29,10.19,13,19.1,14.42,3,.46,5.4,1.24,6.73,4.3,1.57,3.63,5.39,3.8,8.49,4.36,3.62.65,7.07,1.86,10.66,2.58,4.19.85,5.59,4.3,2.74,7.37-5.56,6-6.65,13.53-8.16,21-.33,1.63-.66,3.27-.86,4.92a5.26,5.26,0,0,1-5.19,5.09c-1.16.12-2.69.19-3.17,1.22-4.27,9.18-14,14.72-16.65,25-.1.35-.05.65.49,1.24,1.59-2.53,3.18-5.07,6.47-5.51,2.78-.36,4.68.42,4.83,3.48.11,2.2.23,4.27,1.89,6a2.9,2.9,0,0,1,.28,3.73c-2.13,3.06-.83,5.47.83,8.21,3.2,5.25,2.36,7.58-3.28,9.76-2.95,1.14-3.44,2.86-1,4.63,4,2.92,4.62,5.87,1.92,10.15-2,3.17,0,6.09,4.42,7.72a8.76,8.76,0,0,0,3.44.45c1.8-.06,3.36.36,4,2.26a3.53,3.53,0,0,1-1.4,4c-3.09,2.55-5.63,5.71-8.89,8a38.17,38.17,0,0,0-8.36,7.75c-3.12,4.06-10.58,4.63-17.25,1.82a28.19,28.19,0,0,1-5.19-3,16,16,0,0,0-9.74-3.26c-3.78.08-6.93-2.24-10.17-3.84-2.62-1.31-4.71-1.26-6.84.62a4.94,4.94,0,0,1-1.18.93c-7.46,3.16-11.56,8.12-10.56,16.89.42,3.67-5.91,7.16-10.33,6.2-5.1-1.11-10.39-1.4-15.3-3.52a6.08,6.08,0,0,1-3.56-3.09C79,192.28,75,191,68.72,191.65c-4.77.52-9.92.67-14.35-2.53a39.15,39.15,0,0,0-9.58-4.73c-6.5-2.3-9.92-7.17-13.86-11.91a2.56,2.56,0,0,1-.3-3.52c4.51-7.22,6.84-15.4,10.19-23.13C43.6,139.42,42,132.31,44.68,126c1-2.34,1.2-5.71,5.26-3.89,1.5,1.09,2,2.74,2.35,4.37a1.49,1.49,0,0,1,.27-.07,1.57,1.57,0,0,1-.39-.73,6.18,6.18,0,0,0-2.07-3.76c-3.41-2.62-4.35-5.52-2.81-9.94,1.29-3.68,1.58-7.35-3.71-10.16-4.84-2.57-6-9.24-8.95-14-.53-.88.3-1.88.74-2.78,1.1-2.24,1.16-4.18-1.66-5.22-.79-.29-1.71-.76-1.89-1.54-1.81-8-9.49-9.18-14.89-13A20.57,20.57,0,0,0,7.24,61.7C3.75,61.29,3,57.33,1,55Z" transform="translate(-0.89 -0.92)"/><path class="cls-1" d="M50,123c-2-1.76-3-.5-3.58,1.28-1.53,4.56-1.73,9.44-3.43,14-1.12,3,3.38.92,3.13,3.69-3.54.51-3.94,3.57-4.9,6.87-1.8,6.15-5.8,11.5-7,18-.36,1.92-2.39,2.6-4.14,3.29a3,3,0,0,0,2.47,2.23c2.75.32,4.34,1,2.8,4.26-.7,1.5,1.06,1.79,2,2.62,3.27,2.84,9,1.55,10.85,6.61.36,1,1.75.63,2.74.61s2.66-.23,2.86.2c2.65,5.62,8.18,2.64,12.16,4.17,1.57.6,3.7,1.43,4.09-1.62a1,1,0,0,1,1.83-.66c3.62,3.3,10.8,2.7,10.89,9.89a3.35,3.35,0,0,0,.48,1.25c4.34-1.62,7.14,4.18,11.55,2.4.84-.34,2.42-.5,2.82,0,3.57,4.24,6.88.09,10.25-.22,1.51-.13,2-1.46,1.89-3s-.1-3.33-.1-5c0-4.83,1.08-8.9,6.58-10.22a4.61,4.61,0,0,0,2.54-1.5c5.69-7.79,11.52-3.35,17.34-.27.14.08.26.33.37.31,9.85-1.14,16.25,8.21,25.63,8.43,4.21.09,7.75-.35,10.41-4.83,3.42-5.75,10.69-7.76,14.83-13.1,1.05-1.36,3.43-2.05,2.41-4.35-1.11-2.53-2.86-.07-4.27-.31a12.72,12.72,0,0,1-8.69-5.11c-1.78-2.61-.07-5.25,1.67-7.23,2.21-2.5,1.52-4-1-5.48a11.62,11.62,0,0,1-3.43-2.81c-1.94-2.65-.71-4.39,2.09-5.15,6.29-1.73,7.35-3.9,3.5-8.79-2.43-3.09-4.58-5.52-.07-8.45.69-.44.93-2,.35-2.2-4.5-1.45-3-4.91-3-8,0-1.55-1.45-1.75-2.63-1.45-2,.49-4.56-.18-5.42,2.59a27.94,27.94,0,0,1-.83,3.33c-.58,1.28-1.87,1.22-3,1A1.62,1.62,0,0,1,164,117.5c3.44-3.27,1.89-9.7,7.41-11.55.28-6.7,9.67-7.45,9.48-14.58-.06-2.2,1.78-2.39,3.65-2.14,3.76.49,5.77-.45,5.82-5,.08-7.49,3.32-14.43,4.93-21.68.41-1.89,2.21-2.31,3.51-3.28a4,4,0,0,0,1.63-4.37c-.48-1.83-2.11-1.61-3.6-1.92-5.88-1.21-11.72-2.65-17.56-4-.43-.1-1.13-.46-1.16-.75-.87-8.89-8.87-6.23-13.6-7.43-4-1-5-4.74-8.16-5.56-4.55-1.18-4.59-4.46-4.6-8,0-.76-.55-1.52-1.13-3-1,2.86-1.26,5.58-5,4.94-3.18-.54-4.28-2.1-4.33-5,0-1.66-.54-2.92-2.44-3.16-6-.75-7.85-5.51-9.7-10.18-.47-1.17-.2-3.24-2.1-2.54-5.36,2-6.29-1.71-7.41-5.34-.2-.63-.43-1.25-.65-1.88,33.5,0,67,.05,100.5-.08,3,0,3.59.6,3.58,3.58q-.17,98.25-.08,196.5c-4.82-1.1-1.69-5.26-3.39-8.57-.21,4.32-2.92,5.67-5.8,6.53-7.65,2.29-7.55,8.85-5.33,16.35,1.43,4.82,4.63,8.33,6.52,12.69q-104.86,0-209.73.09c-3.53,0-4.38-.63-4.38-4.31Q1.13,139.39,1,55c3.43,6,10.92,5,15.58,8.92,2,1.74,6.12.57,6.61,4.84.1.82,2.08,0,3.18-.16.9-.17,2.73-.63,2.34.46-1.86,5.2,3.11,1.78,4,3.78-1,3-2.06,6.36,3.56,6.16.54,0,2.19,0,1,1.14-2,1.94,3.36,4.78-.62,5.74-2.43.59-1.93,1.26-.93,2.37,2.83,3.12,4.4,6.93,6.16,10.66.9,1.89,2.28,3.32,4.61,3.12,3-.26,3.2,1.53,2.89,3.79-.24,1.8-.4,3.62-.61,5.43-.32,2.84.95,8.5,2.37,10.5C51.5,122.81,51,123.09,50,123Z" transform="translate(-0.89 -0.92)"/><path class="cls-1" d="M106.88,1.85c-3.37,3.83-3.35,9-3,13.16.5,5.68-3.22,6.56-6.3,8.42-3.65,2.22-8.06,1.65-12.1,2.51-2.56.54-4.06,1.5-4,4.56,0,4.33-3.9,7-8.12,5.19a83.58,83.58,0,0,0-9.49-2.81c-1.44-.41-3.55-.89-3.55-2.33,0-4.73-3.35-5.53-6.73-6.71-1.19-.41-2.21-1.89-3.45-.55a3.35,3.35,0,0,0-.46,4.1c3.08,6.43,1.44,13.65,3.14,20.39.58,2.3-2,1.54-3.24,1C45,47,40.66,45.38,35.57,47.6c-2.83,1.22-4.39-1.36-5.19-4-1.16-3.84-5.36-5.94-8.56-3.57s-6.23,1.73-9.26.62c-3.24-1.18-6.13.55-9.21.47-1.53,0-1,2.34-2.35,2.86C1,30.83,1.12,17.66.91,4.5.86,1.51,1.52.9,4.5.92,38.67,1.05,72.83,1,107,1c.34.24.44.45.29.62A.53.53,0,0,1,106.88,1.85Z" transform="translate(-0.89 -0.92)"/><path class="cls-2" d="M215,228a2.32,2.32,0,0,0-1.7-2.18c-5.31-.57-3.72-5.4-5.36-8.24-2.25-3.89-1.79-8.05-2.06-12.24-.19-3.08,1.89-5.86,3.42-5.73,3.37.28,4.1-4.74,8-3,1.4.63.4-2,.61-3.16s-.41-3.21,1.35-3.25,2.85,1.69,2.59,3.56c-.35,2.56-1.31,5.14,1.14,7.23v1a7.62,7.62,0,0,0,0,6v3c-2.07,3.51-1.4,7.74-3,11.39-.84,2-1.44,4.06-3,5.61Z" transform="translate(-0.89 -0.92)"/><path class="cls-3" d="M217,228c3-5.31,1.11-12.35,6-17,0,3.67-.42,7.39.1,11C223.84,227.17,222.13,229.13,217,228Z" transform="translate(-0.89 -0.92)"/><path class="cls-4" d="M1,46c1.59-.13,2.92.81,2.75,2.14-.35,2.63,1.79,2.66,3.47,3.67C5.19,53.68,3,52.82,1,53Z" transform="translate(-0.89 -0.92)"/><path class="cls-5" d="M106.88,1.85c.05-.28.09-.56.12-.85h8C112.46,2.84,109.62,1.86,106.88,1.85Z" transform="translate(-0.89 -0.92)"/><path class="cls-6" d="M223,208c-1.32-2-2-4,0-6Z" transform="translate(-0.89 -0.92)"/><path class="cls-7" d="M50,123l1.11-1.23a5.09,5.09,0,0,1,2,3.75c0,1.22,1.28,2.82-.94,3.45Z" transform="translate(-0.89 -0.92)"/><path class="cls-8" d="M52.24,129c1.06-.95.66-2.29.94-3.45a3.65,3.65,0,0,1,.42,4.09C53.32,130.12,52.45,129.74,52.24,129Z" transform="translate(-0.89 -0.92)"/></g></g></svg>